<mxfile host="app.diagrams.net" modified="2022-06-06T05:51:23.633Z" agent="5.0 (Windows NT 10.0; Win64; x64) AppleWebKit/537.36 (KHTML, like Gecko) Chrome/102.0.5005.63 Safari/537.36" etag="XcDVNzuRaxuVrbw4pF6h" version="19.0.0" type="github">
  <diagram id="EG4I_s3BdpQyQ8dCtJnK" name="Page-1">
    <mxGraphModel dx="1363" dy="722" grid="1" gridSize="10" guides="1" tooltips="1" connect="1" arrows="1" fold="1" page="1" pageScale="1" pageWidth="827" pageHeight="1169" math="0" shadow="0">
      <root>
        <mxCell id="0" />
        <mxCell id="1" parent="0" />
        <mxCell id="vMaKO2f1EmGFDQ7WSAsm-1" value="&lt;span style=&quot;font-size: 12px;&quot;&gt;&lt;b&gt;SistemaReferencia&lt;/b&gt;&lt;/span&gt;" style="swimlane;fontStyle=0;align=center;verticalAlign=top;childLayout=stackLayout;horizontal=1;startSize=30;horizontalStack=0;resizeParent=1;resizeParentMax=0;resizeLast=0;collapsible=0;marginBottom=0;html=1;labelBackgroundColor=none;labelBorderColor=none;fontSize=11;" vertex="1" parent="1">
          <mxGeometry x="350" y="290" width="280" height="138" as="geometry" />
        </mxCell>
        <mxCell id="vMaKO2f1EmGFDQ7WSAsm-2" value="" style="line;strokeWidth=1;fillColor=none;align=left;verticalAlign=middle;spacingTop=-1;spacingLeft=3;spacingRight=3;rotatable=0;labelPosition=right;points=[];portConstraint=eastwest;labelBackgroundColor=none;labelBorderColor=none;fontSize=11;html=1;" vertex="1" parent="vMaKO2f1EmGFDQ7WSAsm-1">
          <mxGeometry y="30" width="280" height="8" as="geometry" />
        </mxCell>
        <mxCell id="vMaKO2f1EmGFDQ7WSAsm-3" value="&lt;span style=&quot;font-size: 12px;&quot;&gt;+ cargarArticulo(Articulo): void&lt;/span&gt;" style="text;html=1;strokeColor=none;fillColor=none;align=left;verticalAlign=middle;spacingLeft=4;spacingRight=4;overflow=hidden;rotatable=0;points=[[0,0.5],[1,0.5]];portConstraint=eastwest;labelBackgroundColor=none;labelBorderColor=none;fontSize=11;" vertex="1" parent="vMaKO2f1EmGFDQ7WSAsm-1">
          <mxGeometry y="38" width="280" height="20" as="geometry" />
        </mxCell>
        <mxCell id="vMaKO2f1EmGFDQ7WSAsm-37" value="&lt;span style=&quot;font-size: 12px;&quot;&gt;+ suscribir(IObserver, String): void&lt;/span&gt;" style="text;html=1;strokeColor=none;fillColor=none;align=left;verticalAlign=middle;spacingLeft=4;spacingRight=4;overflow=hidden;rotatable=0;points=[[0,0.5],[1,0.5]];portConstraint=eastwest;labelBackgroundColor=none;labelBorderColor=none;fontSize=11;" vertex="1" parent="vMaKO2f1EmGFDQ7WSAsm-1">
          <mxGeometry y="58" width="280" height="20" as="geometry" />
        </mxCell>
        <mxCell id="vMaKO2f1EmGFDQ7WSAsm-39" value="&lt;span style=&quot;font-size: 12px;&quot;&gt;+ notificarUsuarios(String, Articulo): void&lt;/span&gt;" style="text;html=1;strokeColor=none;fillColor=none;align=left;verticalAlign=middle;spacingLeft=4;spacingRight=4;overflow=hidden;rotatable=0;points=[[0,0.5],[1,0.5]];portConstraint=eastwest;labelBackgroundColor=none;labelBorderColor=none;fontSize=11;" vertex="1" parent="vMaKO2f1EmGFDQ7WSAsm-1">
          <mxGeometry y="78" width="280" height="20" as="geometry" />
        </mxCell>
        <mxCell id="vMaKO2f1EmGFDQ7WSAsm-48" value="&lt;span style=&quot;font-size: 12px;&quot;&gt;+ suscribir&lt;/span&gt;&lt;span style=&quot;font-size: 12px;&quot;&gt;(IObserver, String): void&lt;/span&gt;" style="text;html=1;strokeColor=none;fillColor=none;align=left;verticalAlign=middle;spacingLeft=4;spacingRight=4;overflow=hidden;rotatable=0;points=[[0,0.5],[1,0.5]];portConstraint=eastwest;labelBackgroundColor=none;labelBorderColor=none;fontSize=11;" vertex="1" parent="vMaKO2f1EmGFDQ7WSAsm-1">
          <mxGeometry y="98" width="280" height="20" as="geometry" />
        </mxCell>
        <mxCell id="vMaKO2f1EmGFDQ7WSAsm-49" value="&lt;span style=&quot;font-size: 12px;&quot;&gt;+ desuscribir&lt;/span&gt;&lt;span style=&quot;font-size: 12px;&quot;&gt;(IObserver, String): void&lt;/span&gt;" style="text;html=1;strokeColor=none;fillColor=none;align=left;verticalAlign=middle;spacingLeft=4;spacingRight=4;overflow=hidden;rotatable=0;points=[[0,0.5],[1,0.5]];portConstraint=eastwest;labelBackgroundColor=none;labelBorderColor=none;fontSize=11;" vertex="1" parent="vMaKO2f1EmGFDQ7WSAsm-1">
          <mxGeometry y="118" width="280" height="20" as="geometry" />
        </mxCell>
        <mxCell id="vMaKO2f1EmGFDQ7WSAsm-6" value="&amp;lt;&amp;lt;interface&amp;gt;&amp;gt;&lt;br&gt;&lt;span style=&quot;font-size: 12px ; font-weight: 700&quot;&gt;IObserver&lt;/span&gt;" style="swimlane;fontStyle=0;align=center;verticalAlign=top;childLayout=stackLayout;horizontal=1;startSize=42;horizontalStack=0;resizeParent=1;resizeParentMax=0;resizeLast=0;collapsible=0;marginBottom=0;html=1;labelBackgroundColor=none;labelBorderColor=none;fontSize=11;" vertex="1" parent="1">
          <mxGeometry x="40" y="410" width="260" height="70" as="geometry" />
        </mxCell>
        <mxCell id="vMaKO2f1EmGFDQ7WSAsm-7" value="" style="line;strokeWidth=1;fillColor=none;align=left;verticalAlign=middle;spacingTop=-1;spacingLeft=3;spacingRight=3;rotatable=0;labelPosition=right;points=[];portConstraint=eastwest;labelBackgroundColor=none;labelBorderColor=none;fontSize=11;html=1;" vertex="1" parent="vMaKO2f1EmGFDQ7WSAsm-6">
          <mxGeometry y="42" width="260" height="8" as="geometry" />
        </mxCell>
        <mxCell id="vMaKO2f1EmGFDQ7WSAsm-8" value="&lt;span style=&quot;font-size: 12px;&quot;&gt;+ notificarNuevaPublicacion&lt;/span&gt;&lt;span style=&quot;font-size: 12px;&quot;&gt;(Articulo): String&lt;/span&gt;" style="text;html=1;strokeColor=none;fillColor=none;align=left;verticalAlign=middle;spacingLeft=4;spacingRight=4;overflow=hidden;rotatable=0;points=[[0,0.5],[1,0.5]];portConstraint=eastwest;labelBackgroundColor=none;labelBorderColor=none;fontSize=11;" vertex="1" parent="vMaKO2f1EmGFDQ7WSAsm-6">
          <mxGeometry y="50" width="260" height="20" as="geometry" />
        </mxCell>
        <mxCell id="vMaKO2f1EmGFDQ7WSAsm-10" value="Ejercicio 1 - Publicaciones" style="text;html=1;strokeColor=none;fillColor=none;align=center;verticalAlign=middle;whiteSpace=wrap;rounded=0;fontSize=20;" vertex="1" parent="1">
          <mxGeometry x="19" y="250" width="320" height="20" as="geometry" />
        </mxCell>
        <mxCell id="vMaKO2f1EmGFDQ7WSAsm-11" value="Ejercicio 3 - Concursos de preguntas y respuestas" style="text;html=1;strokeColor=none;fillColor=none;align=center;verticalAlign=middle;whiteSpace=wrap;rounded=0;fontSize=20;" vertex="1" parent="1">
          <mxGeometry x="29" y="790" width="480" height="20" as="geometry" />
        </mxCell>
        <mxCell id="vMaKO2f1EmGFDQ7WSAsm-13" value="Ejercicio 2 - Encuentos Deportivos" style="text;html=1;strokeColor=none;fillColor=none;align=center;verticalAlign=middle;whiteSpace=wrap;rounded=0;fontSize=20;" vertex="1" parent="1">
          <mxGeometry x="40" y="710" width="320" height="20" as="geometry" />
        </mxCell>
        <mxCell id="vMaKO2f1EmGFDQ7WSAsm-14" value="Ejercicio 0 - Diferentes alternativas de Observer" style="text;html=1;strokeColor=none;fillColor=none;align=center;verticalAlign=middle;whiteSpace=wrap;rounded=0;fontSize=20;" vertex="1" parent="1">
          <mxGeometry x="20" y="20" width="440" height="20" as="geometry" />
        </mxCell>
        <mxCell id="vMaKO2f1EmGFDQ7WSAsm-16" value="&lt;div&gt;&lt;span style=&quot;background-color: initial;&quot;&gt;simpleObserver: La ventaja es que se sencilla de implementar, pero los bomberos no sabrian que cambio al ser&lt;/span&gt;&lt;br&gt;&lt;/div&gt;&lt;div&gt;&lt;span style=&quot;font-size: 12px;&quot;&gt;notificados. Ademas estarian siendo llamados todo el tiempo&lt;/span&gt;&lt;/div&gt;&lt;div&gt;&lt;span style=&quot;font-size: 12px;&quot;&gt;complexObserver: Es mas especifico que el simpleObserver pero es un solo sensor&lt;/span&gt;&lt;/div&gt;&lt;div&gt;&lt;span style=&quot;font-size: 12px;&quot;&gt;&lt;br&gt;&lt;/span&gt;&lt;/div&gt;&lt;div&gt;&lt;span style=&quot;font-size: 12px;&quot;&gt;complexWithListener: Es una solucion mas elegante, y permite abstraer mas el observable asi como tambien&lt;/span&gt;&lt;/div&gt;&lt;div&gt;&lt;span style=&quot;font-size: 12px;&quot;&gt;tener mas observadores que escuchen&lt;/span&gt;&lt;/div&gt;&lt;div&gt;&lt;span style=&quot;font-size: 12px;&quot;&gt;&lt;br&gt;&lt;/span&gt;&lt;/div&gt;&lt;div&gt;&lt;span style=&quot;font-size: 12px;&quot;&gt;Para que una clase observadora observe a mas de un sensor se tendria que hacer una interface que sea polimorfica&lt;/span&gt;&lt;/div&gt;&lt;div&gt;&lt;span style=&quot;font-size: 12px;&quot;&gt;y tenga un protocolo para diferentes sensores.&lt;/span&gt;&lt;/div&gt;&lt;div&gt;&lt;span style=&quot;font-size: 12px;&quot;&gt;En este caso se tendria que implementar el SensorListener&lt;/span&gt;&lt;/div&gt;" style="text;html=1;strokeColor=none;fillColor=none;align=left;verticalAlign=top;whiteSpace=wrap;rounded=0;fontSize=12;" vertex="1" parent="1">
          <mxGeometry x="20" y="50" width="760" height="160" as="geometry" />
        </mxCell>
        <mxCell id="vMaKO2f1EmGFDQ7WSAsm-18" value="&lt;span style=&quot;font-size: 12px;&quot;&gt;&lt;b&gt;Articulo&lt;/b&gt;&lt;/span&gt;" style="swimlane;fontStyle=0;align=center;verticalAlign=top;childLayout=stackLayout;horizontal=1;startSize=30;horizontalStack=0;resizeParent=1;resizeParentMax=0;resizeLast=0;collapsible=0;marginBottom=0;html=1;labelBackgroundColor=none;labelBorderColor=none;fontSize=11;" vertex="1" parent="1">
          <mxGeometry x="720" y="290" width="280" height="158" as="geometry" />
        </mxCell>
        <mxCell id="vMaKO2f1EmGFDQ7WSAsm-20" value="&lt;span style=&quot;font-size: 12px;&quot;&gt;- titulo: String&lt;/span&gt;" style="text;html=1;strokeColor=none;fillColor=none;align=left;verticalAlign=middle;spacingLeft=4;spacingRight=4;overflow=hidden;rotatable=0;points=[[0,0.5],[1,0.5]];portConstraint=eastwest;labelBackgroundColor=none;labelBorderColor=none;fontSize=11;" vertex="1" parent="vMaKO2f1EmGFDQ7WSAsm-18">
          <mxGeometry y="30" width="280" height="20" as="geometry" />
        </mxCell>
        <mxCell id="vMaKO2f1EmGFDQ7WSAsm-21" value="&lt;span style=&quot;font-size: 12px;&quot;&gt;- autores: List&amp;lt;String&amp;gt;&lt;/span&gt;" style="text;html=1;strokeColor=none;fillColor=none;align=left;verticalAlign=middle;spacingLeft=4;spacingRight=4;overflow=hidden;rotatable=0;points=[[0,0.5],[1,0.5]];portConstraint=eastwest;labelBackgroundColor=none;labelBorderColor=none;fontSize=11;" vertex="1" parent="vMaKO2f1EmGFDQ7WSAsm-18">
          <mxGeometry y="50" width="280" height="20" as="geometry" />
        </mxCell>
        <mxCell id="vMaKO2f1EmGFDQ7WSAsm-32" value="&lt;span style=&quot;font-size: 12px;&quot;&gt;- filiacion: String&lt;/span&gt;" style="text;html=1;strokeColor=none;fillColor=none;align=left;verticalAlign=middle;spacingLeft=4;spacingRight=4;overflow=hidden;rotatable=0;points=[[0,0.5],[1,0.5]];portConstraint=eastwest;labelBackgroundColor=none;labelBorderColor=none;fontSize=11;" vertex="1" parent="vMaKO2f1EmGFDQ7WSAsm-18">
          <mxGeometry y="70" width="280" height="20" as="geometry" />
        </mxCell>
        <mxCell id="vMaKO2f1EmGFDQ7WSAsm-33" value="&lt;span style=&quot;font-size: 12px;&quot;&gt;- tipo: String&lt;/span&gt;" style="text;html=1;strokeColor=none;fillColor=none;align=left;verticalAlign=middle;spacingLeft=4;spacingRight=4;overflow=hidden;rotatable=0;points=[[0,0.5],[1,0.5]];portConstraint=eastwest;labelBackgroundColor=none;labelBorderColor=none;fontSize=11;" vertex="1" parent="vMaKO2f1EmGFDQ7WSAsm-18">
          <mxGeometry y="90" width="280" height="20" as="geometry" />
        </mxCell>
        <mxCell id="vMaKO2f1EmGFDQ7WSAsm-34" value="&lt;span style=&quot;font-size: 12px;&quot;&gt;- lugarPublicado: String&lt;/span&gt;" style="text;html=1;strokeColor=none;fillColor=none;align=left;verticalAlign=middle;spacingLeft=4;spacingRight=4;overflow=hidden;rotatable=0;points=[[0,0.5],[1,0.5]];portConstraint=eastwest;labelBackgroundColor=none;labelBorderColor=none;fontSize=11;" vertex="1" parent="vMaKO2f1EmGFDQ7WSAsm-18">
          <mxGeometry y="110" width="280" height="20" as="geometry" />
        </mxCell>
        <mxCell id="vMaKO2f1EmGFDQ7WSAsm-35" value="&lt;span style=&quot;font-size: 12px;&quot;&gt;- palabrasClaves: List&amp;lt;String&amp;gt;&lt;/span&gt;" style="text;html=1;strokeColor=none;fillColor=none;align=left;verticalAlign=middle;spacingLeft=4;spacingRight=4;overflow=hidden;rotatable=0;points=[[0,0.5],[1,0.5]];portConstraint=eastwest;labelBackgroundColor=none;labelBorderColor=none;fontSize=11;" vertex="1" parent="vMaKO2f1EmGFDQ7WSAsm-18">
          <mxGeometry y="130" width="280" height="20" as="geometry" />
        </mxCell>
        <mxCell id="vMaKO2f1EmGFDQ7WSAsm-19" value="" style="line;strokeWidth=1;fillColor=none;align=left;verticalAlign=middle;spacingTop=-1;spacingLeft=3;spacingRight=3;rotatable=0;labelPosition=right;points=[];portConstraint=eastwest;labelBackgroundColor=none;labelBorderColor=none;fontSize=11;html=1;" vertex="1" parent="vMaKO2f1EmGFDQ7WSAsm-18">
          <mxGeometry y="150" width="280" height="8" as="geometry" />
        </mxCell>
        <mxCell id="vMaKO2f1EmGFDQ7WSAsm-23" value="&lt;span style=&quot;font-size: 12px;&quot;&gt;&lt;b&gt;Investigador&lt;/b&gt;&lt;/span&gt;" style="swimlane;fontStyle=0;align=center;verticalAlign=top;childLayout=stackLayout;horizontal=1;startSize=30;horizontalStack=0;resizeParent=1;resizeParentMax=0;resizeLast=0;collapsible=0;marginBottom=0;html=1;labelBackgroundColor=none;labelBorderColor=none;fontSize=11;" vertex="1" parent="1">
          <mxGeometry x="30" y="290" width="280" height="78" as="geometry" />
        </mxCell>
        <mxCell id="vMaKO2f1EmGFDQ7WSAsm-27" value="&lt;span style=&quot;font-size: 12px;&quot;&gt;- nombre: String&lt;/span&gt;" style="text;html=1;strokeColor=none;fillColor=none;align=left;verticalAlign=middle;spacingLeft=4;spacingRight=4;overflow=hidden;rotatable=0;points=[[0,0.5],[1,0.5]];portConstraint=eastwest;labelBackgroundColor=none;labelBorderColor=none;fontSize=11;" vertex="1" parent="vMaKO2f1EmGFDQ7WSAsm-23">
          <mxGeometry y="30" width="280" height="20" as="geometry" />
        </mxCell>
        <mxCell id="vMaKO2f1EmGFDQ7WSAsm-24" value="" style="line;strokeWidth=1;fillColor=none;align=left;verticalAlign=middle;spacingTop=-1;spacingLeft=3;spacingRight=3;rotatable=0;labelPosition=right;points=[];portConstraint=eastwest;labelBackgroundColor=none;labelBorderColor=none;fontSize=11;html=1;" vertex="1" parent="vMaKO2f1EmGFDQ7WSAsm-23">
          <mxGeometry y="50" width="280" height="8" as="geometry" />
        </mxCell>
        <mxCell id="vMaKO2f1EmGFDQ7WSAsm-47" value="&lt;span style=&quot;font-size: 12px;&quot;&gt;+ notificarNuevaPublicacion&lt;/span&gt;&lt;span style=&quot;font-size: 12px;&quot;&gt;(Articulo): String&lt;/span&gt;" style="text;html=1;strokeColor=none;fillColor=none;align=left;verticalAlign=middle;spacingLeft=4;spacingRight=4;overflow=hidden;rotatable=0;points=[[0,0.5],[1,0.5]];portConstraint=eastwest;labelBackgroundColor=none;labelBorderColor=none;fontSize=11;" vertex="1" parent="vMaKO2f1EmGFDQ7WSAsm-23">
          <mxGeometry y="58" width="280" height="20" as="geometry" />
        </mxCell>
        <mxCell id="vMaKO2f1EmGFDQ7WSAsm-28" style="edgeStyle=none;orthogonalLoop=1;jettySize=auto;html=1;exitX=1;exitY=0.25;exitDx=0;exitDy=0;endArrow=block;endFill=1;rounded=0;entryX=0;entryY=0.25;entryDx=0;entryDy=0;" edge="1" parent="1" source="vMaKO2f1EmGFDQ7WSAsm-1" target="vMaKO2f1EmGFDQ7WSAsm-18">
          <mxGeometry relative="1" as="geometry">
            <mxPoint x="640" y="450" as="targetPoint" />
            <mxPoint x="608.9135464888259" y="430" as="sourcePoint" />
          </mxGeometry>
        </mxCell>
        <mxCell id="vMaKO2f1EmGFDQ7WSAsm-38" style="edgeStyle=none;orthogonalLoop=1;jettySize=auto;html=1;exitX=0.452;exitY=1.033;exitDx=0;exitDy=0;endArrow=block;endFill=1;rounded=0;exitPerimeter=0;entryX=0.438;entryY=-0.039;entryDx=0;entryDy=0;entryPerimeter=0;dashed=1;" edge="1" parent="1" source="vMaKO2f1EmGFDQ7WSAsm-47" target="vMaKO2f1EmGFDQ7WSAsm-6">
          <mxGeometry relative="1" as="geometry">
            <mxPoint x="640" y="450" as="targetPoint" />
            <mxPoint x="608.9135464888259" y="430" as="sourcePoint" />
          </mxGeometry>
        </mxCell>
        <mxCell id="vMaKO2f1EmGFDQ7WSAsm-41" style="edgeStyle=none;orthogonalLoop=1;jettySize=auto;html=1;exitX=1;exitY=0;exitDx=0;exitDy=0;endArrow=none;endFill=0;rounded=0;entryX=0.005;entryY=0.947;entryDx=0;entryDy=0;entryPerimeter=0;startArrow=block;startFill=1;" edge="1" parent="1" source="vMaKO2f1EmGFDQ7WSAsm-6" target="vMaKO2f1EmGFDQ7WSAsm-39">
          <mxGeometry relative="1" as="geometry">
            <mxPoint x="360" y="319.50200000000007" as="targetPoint" />
            <mxPoint x="321.39999999999986" y="319.48800000000006" as="sourcePoint" />
          </mxGeometry>
        </mxCell>
        <mxCell id="vMaKO2f1EmGFDQ7WSAsm-42" value="&amp;lt;&amp;lt;interface&amp;gt;&amp;gt;&lt;br&gt;&lt;span style=&quot;font-size: 12px ; font-weight: 700&quot;&gt;ISubject&lt;/span&gt;" style="swimlane;fontStyle=0;align=center;verticalAlign=top;childLayout=stackLayout;horizontal=1;startSize=42;horizontalStack=0;resizeParent=1;resizeParentMax=0;resizeLast=0;collapsible=0;marginBottom=0;html=1;labelBackgroundColor=none;labelBorderColor=none;fontSize=11;" vertex="1" parent="1">
          <mxGeometry x="360" y="530" width="260" height="90" as="geometry" />
        </mxCell>
        <mxCell id="vMaKO2f1EmGFDQ7WSAsm-43" value="" style="line;strokeWidth=1;fillColor=none;align=left;verticalAlign=middle;spacingTop=-1;spacingLeft=3;spacingRight=3;rotatable=0;labelPosition=right;points=[];portConstraint=eastwest;labelBackgroundColor=none;labelBorderColor=none;fontSize=11;html=1;" vertex="1" parent="vMaKO2f1EmGFDQ7WSAsm-42">
          <mxGeometry y="42" width="260" height="8" as="geometry" />
        </mxCell>
        <mxCell id="vMaKO2f1EmGFDQ7WSAsm-44" value="&lt;span style=&quot;font-size: 12px;&quot;&gt;+ suscribir&lt;/span&gt;&lt;span style=&quot;font-size: 12px;&quot;&gt;(IObserver, String): void&lt;/span&gt;" style="text;html=1;strokeColor=none;fillColor=none;align=left;verticalAlign=middle;spacingLeft=4;spacingRight=4;overflow=hidden;rotatable=0;points=[[0,0.5],[1,0.5]];portConstraint=eastwest;labelBackgroundColor=none;labelBorderColor=none;fontSize=11;" vertex="1" parent="vMaKO2f1EmGFDQ7WSAsm-42">
          <mxGeometry y="50" width="260" height="20" as="geometry" />
        </mxCell>
        <mxCell id="vMaKO2f1EmGFDQ7WSAsm-45" value="&lt;span style=&quot;font-size: 12px;&quot;&gt;+ desuscribir&lt;/span&gt;&lt;span style=&quot;font-size: 12px;&quot;&gt;(IObserver, String): void&lt;/span&gt;" style="text;html=1;strokeColor=none;fillColor=none;align=left;verticalAlign=middle;spacingLeft=4;spacingRight=4;overflow=hidden;rotatable=0;points=[[0,0.5],[1,0.5]];portConstraint=eastwest;labelBackgroundColor=none;labelBorderColor=none;fontSize=11;" vertex="1" parent="vMaKO2f1EmGFDQ7WSAsm-42">
          <mxGeometry y="70" width="260" height="20" as="geometry" />
        </mxCell>
        <mxCell id="vMaKO2f1EmGFDQ7WSAsm-46" style="edgeStyle=none;orthogonalLoop=1;jettySize=auto;html=1;exitX=0.487;exitY=0.996;exitDx=0;exitDy=0;endArrow=block;endFill=1;rounded=0;exitPerimeter=0;entryX=0.5;entryY=0;entryDx=0;entryDy=0;dashed=1;" edge="1" parent="1" source="vMaKO2f1EmGFDQ7WSAsm-49" target="vMaKO2f1EmGFDQ7WSAsm-42">
          <mxGeometry relative="1" as="geometry">
            <mxPoint x="163.8800000000001" y="417.27" as="targetPoint" />
            <mxPoint x="163.76000000000022" y="350.8399999999999" as="sourcePoint" />
          </mxGeometry>
        </mxCell>
      </root>
    </mxGraphModel>
  </diagram>
</mxfile>
